# xmcd
#
# Track frame offsets: 
#        150
#        9140
#        22779
#        36426
#        49884
#        63516
#        75392
#        86248
#        98656
#        112579
#        125669
#        137969
#        151603
#        163348
#        172684
#        187150
#        198456
#        210406
#        223377
#        236614
#        249696
#        261375
#        273957
#        285656
#        297283
#        308658
#        320432
#
# Disc length: 4431 seconds
#
# Revision: 0
# Processed by: cddbd v1.5.2PL0 Copyright (c) Steve Scherf et al.
# Submitted via: ExactAudioCopyFreeDBPlugin 1.0
#
DISCID=7f114d1b
DTITLE=Little Junior Parker - Ride With Me, Baby [CD1]
DYEAR=2012
DGENRE=Blues
TTITLE0=You're My Angel
TTITLE1=Bad Women, Bad Whiskey
TTITLE2=Love My Baby (Bobby Bland and Junior Parker)
TTITLE3=Feelin' Good
TTITLE4=Fussin' And Fightin' Blues
TTITLE5=Love My Baby
TTITLE6=Mystery Train
TTITLE7=Feelin' Bad
TTITLE8=Dirty Friend Blues
TTITLE9=Can't Understand
TTITLE10=Please Baby Blues
TTITLE11=Sittin', Drinkin' And Thinkin' (1953 Duke)
TTITLE12=Sittin' At The Bar
TTITLE13=Sittin' At The Window
TTITLE14=Sittin', Drinkin' And Thinkin' (1954 Sun)
TTITLE15=Love My Baby (Alternative take)
TTITLE16=Backtracking
TTITLE17=I Wanna Ramble
TTITLE18=Can You Tell Me, Baby
TTITLE19=Driving Me Mad
TTITLE20=There Better Be No Feet (In Them Shoes)
TTITLE21=I'm Tender
TTITLE22=Pretty Baby (1955)
TTITLE23=Mother-In-Law Blues
TTITLE24=That's My Baby
TTITLE25=My Dolly Bee
TTITLE26=Next Time You See Me
EXTD=
EXTT0=
EXTT1=
EXTT2=
EXTT3=
EXTT4=
EXTT5=
EXTT6=
EXTT7=
EXTT8=
EXTT9=
EXTT10=
EXTT11=
EXTT12=
EXTT13=
EXTT14=
EXTT15=
EXTT16=
EXTT17=
EXTT18=
EXTT19=
EXTT20=
EXTT21=
EXTT22=
EXTT23=
EXTT24=
EXTT25=
EXTT26=
PLAYORDER=
